<svg width="45" height="46" viewBox="0 0 45 46" fill="none" xmlns="http://www.w3.org/2000/svg">
<path d="M10.272 45H0.889648V0.0263672H26.668V7.83984H10.272V19.437H25.5298V27.2197H10.272V45ZM33.4048 40.6011C33.4048 38.8784 33.8662 37.5762 34.7891 36.6943C35.7119 35.8125 37.0552 35.3716 38.8188 35.3716C40.521 35.3716 41.8335 35.8228 42.7563 36.7251C43.6997 37.6274 44.1714 38.9194 44.1714 40.6011C44.1714 42.2212 43.6997 43.5029 42.7563 44.4463C41.813 45.3691 40.5005 45.8306 38.8188 45.8306C37.0962 45.8306 35.7632 45.3794 34.8198 44.4771C33.8765 43.5542 33.4048 42.2622 33.4048 40.6011Z" fill="#E5E5E5"/>
</svg>
